<mxfile host="app.diagrams.net" modified="2020-12-08T19:15:20.335Z" agent="5.0 (Windows NT 10.0; Win64; x64) AppleWebKit/537.36 (KHTML, like Gecko) Chrome/87.0.4280.88 Safari/537.36" etag="mBCldQ4-zQePUJ-sjNbu" version="13.9.9" type="github">
  <diagram name="Page-1" id="3e8102d1-ef87-2e61-34e1-82d9a586fe2e">
    <mxGraphModel dx="582" dy="1564" grid="1" gridSize="10" guides="1" tooltips="1" connect="1" arrows="1" fold="1" page="1" pageScale="1" pageWidth="1100" pageHeight="850" background="#ffffff" math="0" shadow="0">
      <root>
        <mxCell id="0" />
        <mxCell id="1" parent="0" />
        <mxCell id="70666756c84bb93c-1" value="" style="ellipse;whiteSpace=wrap;html=1;rounded=0;shadow=0;comic=0;strokeWidth=1;fontFamily=Verdana;fontSize=14;strokeColor=none;fillColor=#0069D1;" parent="1" vertex="1">
          <mxGeometry x="275.5" y="270" width="500" height="500" as="geometry" />
        </mxCell>
        <mxCell id="sxDhyP1qLRuuLuAuOI6t-9" value="" style="ellipse;whiteSpace=wrap;html=1;fontColor=#FFFFFF;strokeColor=#FFFFFF;fillColor=#FFFFFF;gradientColor=#ffffff;" vertex="1" parent="1">
          <mxGeometry x="319" y="410" width="230.97" height="280" as="geometry" />
        </mxCell>
        <mxCell id="70666756c84bb93c-12" value="&lt;span style=&quot;font-family: arial, sans-serif; font-size: 19px;&quot;&gt;&lt;font color=&quot;#fffcfc&quot; style=&quot;font-size: 19px;&quot;&gt;Electronic&lt;br style=&quot;font-size: 19px;&quot;&gt;chart display systems&lt;/font&gt;&lt;/span&gt;" style="shadow=0;dashed=0;html=1;strokeColor=none;fillColor=#ffffff;labelPosition=center;verticalLabelPosition=bottom;verticalAlign=top;shape=mxgraph.office.concepts.globe_internet;rounded=0;comic=0;fontFamily=Verdana;fontSize=19;fontColor=#FFFFFF;" parent="1" vertex="1">
          <mxGeometry x="500" y="290" width="49" height="49" as="geometry" />
        </mxCell>
        <mxCell id="sxDhyP1qLRuuLuAuOI6t-10" value="" style="ellipse;whiteSpace=wrap;html=1;gradientColor=#ffffff;fontColor=#FFFFFF;strokeColor=#FFFFFF;" vertex="1" parent="1">
          <mxGeometry x="557.98" y="430" width="169.03" height="240" as="geometry" />
        </mxCell>
        <mxCell id="sxDhyP1qLRuuLuAuOI6t-5" value="&lt;font style=&quot;font-size: 17px&quot;&gt;Inland ECDIS device &lt;br&gt;in information mode&lt;br&gt;in navigation mode&lt;/font&gt;" style="shape=mxgraph.signs.tech.computer;html=1;pointerEvents=1;strokeColor=none;verticalLabelPosition=bottom;verticalAlign=top;align=center;fillColor=#0069D1;fontColor=#0069D1;" vertex="1" parent="1">
          <mxGeometry x="360" y="450" width="140" height="140" as="geometry" />
        </mxCell>
        <mxCell id="sxDhyP1qLRuuLuAuOI6t-7" value="&lt;font style=&quot;font-size: 15px&quot;&gt;Comparable device &lt;br&gt;for displaying &lt;br&gt;electronic Charts&lt;/font&gt;&amp;nbsp;" style="pointerEvents=1;shadow=0;dashed=0;html=1;strokeColor=none;labelPosition=center;verticalLabelPosition=bottom;verticalAlign=top;outlineConnect=0;align=center;shape=mxgraph.office.devices.tablet_ipad;fillColor=#0069D1;fontColor=#0069D1;" vertex="1" parent="1">
          <mxGeometry x="601.25" y="470" width="82.5" height="110" as="geometry" />
        </mxCell>
      </root>
    </mxGraphModel>
  </diagram>
</mxfile>
